{
	"patcher" : 	{
		"fileversion" : 1,
		"appversion" : 		{
			"major" : 8,
			"minor" : 2,
			"revision" : 1,
			"architecture" : "x64",
			"modernui" : 1
		}
,
		"classnamespace" : "box",
		"rect" : [ 59.0, 104.0, 640.0, 80.0 ],
		"bglocked" : 0,
		"openinpresentation" : 0,
		"default_fontsize" : 12.0,
		"default_fontface" : 0,
		"default_fontname" : "Arial",
		"gridonopen" : 1,
		"gridsize" : [ 15.0, 15.0 ],
		"gridsnaponopen" : 1,
		"objectsnaponopen" : 1,
		"statusbarvisible" : 2,
		"toolbarvisible" : 1,
		"lefttoolbarpinned" : 0,
		"toptoolbarpinned" : 0,
		"righttoolbarpinned" : 0,
		"bottomtoolbarpinned" : 0,
		"toolbars_unpinned_last_save" : 0,
		"tallnewobj" : 0,
		"boxanimatetime" : 200,
		"enablehscroll" : 1,
		"enablevscroll" : 1,
		"devicewidth" : 0.0,
		"description" : "",
		"digest" : "",
		"tags" : "",
		"style" : "",
		"subpatcher_template" : "",
		"assistshowspatchername" : 0,
		"boxes" : [ 			{
				"box" : 				{
					"id" : "obj-2",
					"maxclass" : "newobj",
					"numinlets" : 2,
					"numoutlets" : 1,
					"outlettype" : [ "signal" ],
					"patching_rect" : [ 439.0, 11.0, 66.0, 22.0 ],
					"text" : "cycle~ 440"
				}

			}
, 			{
				"box" : 				{
					"hidden" : 1,
					"id" : "obj-6",
					"maxclass" : "newobj",
					"numinlets" : 1,
					"numoutlets" : 1,
					"outlettype" : [ "" ],
					"patching_rect" : [ 535.0, 0.0, 90.0, 22.0 ],
					"text" : "loadmess open"
				}

			}
, 			{
				"box" : 				{
					"hidden" : 1,
					"id" : "obj-5",
					"maxclass" : "newobj",
					"numinlets" : 1,
					"numoutlets" : 1,
					"outlettype" : [ "" ],
					"patching_rect" : [ 535.0, 24.0, 51.0, 22.0 ],
					"text" : "pcontrol"
				}

			}
, 			{
				"box" : 				{
					"bgcolor" : [ 0.184313725490196, 0.513725490196078, 0.235294117647059, 1.0 ],
					"id" : "obj-4",
					"maxclass" : "newobj",
					"numinlets" : 1,
					"numoutlets" : 0,
					"patching_rect" : [ 439.0, 43.0, 84.0, 22.0 ],
					"text" : "send~ signalX"
				}

			}
, 			{
				"box" : 				{
					"id" : "obj-3",
					"linecount" : 3,
					"maxclass" : "comment",
					"numinlets" : 1,
					"numoutlets" : 0,
					"patching_rect" : [ 169.0, 18.0, 117.0, 47.0 ],
					"text" : "wrapper/abstraction for Max spectroscope~"
				}

			}
, 			{
				"box" : 				{
					"bgcolor" : [ 0.2, 0.588235294117647, 0.023529411764706, 1.0 ],
					"fontsize" : 24.0,
					"id" : "obj-1",
					"maxclass" : "newobj",
					"numinlets" : 1,
					"numoutlets" : 0,
					"patching_rect" : [ 287.0, 30.0, 138.0, 35.0 ],
					"text" : "soundscope"
				}

			}
 ],
		"lines" : [ 			{
				"patchline" : 				{
					"destination" : [ "obj-4", 0 ],
					"source" : [ "obj-2", 0 ]
				}

			}
, 			{
				"patchline" : 				{
					"destination" : [ "obj-1", 0 ],
					"hidden" : 1,
					"source" : [ "obj-5", 0 ]
				}

			}
, 			{
				"patchline" : 				{
					"destination" : [ "obj-5", 0 ],
					"hidden" : 1,
					"source" : [ "obj-6", 0 ]
				}

			}
 ],
		"dependency_cache" : [ 			{
				"name" : "soundscope.maxpat",
				"bootpath" : "~/Documents/Max 8/Packages/CNMAT-MMJ-Depot-2_022722/patchers/sound visualization",
				"patcherrelativepath" : "../../patchers/sound visualization",
				"type" : "JSON",
				"implicit" : 1
			}
, 			{
				"name" : "nothing.maxpat",
				"bootpath" : "~/Documents/Max_Enabled/SATHERBELLS-Max_inst_2015",
				"patcherrelativepath" : "../../../../../Max_Enabled/SATHERBELLS-Max_inst_2015",
				"type" : "JSON",
				"implicit" : 1
			}
, 			{
				"name" : "uc_license.maxpat",
				"bootpath" : "~/Documents/Max_Enabled/SATHERBELLS-Max_inst_2015",
				"patcherrelativepath" : "../../../../../Max_Enabled/SATHERBELLS-Max_inst_2015",
				"type" : "JSON",
				"implicit" : 1
			}
, 			{
				"name" : "cnmat_blue.gif",
				"bootpath" : "~/Documents/Max 8/Packages/CNMAT-MMJ-Depot-2_022722/media/Images",
				"patcherrelativepath" : "../../media/Images",
				"type" : "GIFf",
				"implicit" : 1
			}
 ],
		"autosave" : 0
	}

}
