{
	"patcher" : 	{
		"fileversion" : 1,
		"appversion" : 		{
			"major" : 8,
			"minor" : 1,
			"revision" : 10,
			"architecture" : "x64",
			"modernui" : 1
		}
,
		"classnamespace" : "box",
		"rect" : [ 59.0, 104.0, 480.0, 394.0 ],
		"bglocked" : 0,
		"openinpresentation" : 0,
		"default_fontsize" : 12.0,
		"default_fontface" : 0,
		"default_fontname" : "Arial",
		"gridonopen" : 1,
		"gridsize" : [ 15.0, 15.0 ],
		"gridsnaponopen" : 1,
		"objectsnaponopen" : 1,
		"statusbarvisible" : 2,
		"toolbarvisible" : 1,
		"lefttoolbarpinned" : 0,
		"toptoolbarpinned" : 0,
		"righttoolbarpinned" : 0,
		"bottomtoolbarpinned" : 0,
		"toolbars_unpinned_last_save" : 0,
		"tallnewobj" : 0,
		"boxanimatetime" : 200,
		"enablehscroll" : 1,
		"enablevscroll" : 1,
		"devicewidth" : 0.0,
		"description" : "",
		"digest" : "",
		"tags" : "",
		"style" : "",
		"subpatcher_template" : "",
		"assistshowspatchername" : 0,
		"boxes" : [ 			{
				"box" : 				{
					"id" : "obj-20",
					"maxclass" : "number",
					"numinlets" : 1,
					"numoutlets" : 2,
					"outlettype" : [ "", "bang" ],
					"parameter_enable" : 0,
					"patching_rect" : [ 78.192311704158783, 66.0, 50.0, 22.0 ]
				}

			}
, 			{
				"box" : 				{
					"id" : "obj-17",
					"linecount" : 2,
					"maxclass" : "comment",
					"numinlets" : 1,
					"numoutlets" : 0,
					"patching_rect" : [ 100.5, 29.0, 347.0, 33.0 ],
					"text" : "Press and hold the shift key to expose UI objects and use them.\nRelease the shift key to re-hide the UI objects"
				}

			}
, 			{
				"box" : 				{
					"bgcolor" : [ 0.215686274509804, 0.831372549019608, 0.094117647058824, 1.0 ],
					"hidden" : 1,
					"id" : "obj-14",
					"maxclass" : "dial",
					"numinlets" : 1,
					"numoutlets" : 1,
					"outlettype" : [ "float" ],
					"parameter_enable" : 0,
					"patching_rect" : [ 168.0, 156.0, 82.0, 82.0 ]
				}

			}
, 			{
				"box" : 				{
					"id" : "obj-10",
					"linecount" : 6,
					"maxclass" : "comment",
					"numinlets" : 1,
					"numoutlets" : 0,
					"patching_rect" : [ 159.0, 253.730771541595459, 150.0, 87.0 ],
					"text" : "Objects connected to shift2hidden are prepared in the inspector with \"hide on lock\".  Select the object and <command m> to expose Inspector.  "
				}

			}
, 			{
				"box" : 				{
					"fontname" : "Arial",
					"fontsize" : 12.0,
					"format" : 6,
					"hidden" : 1,
					"id" : "obj-98",
					"maxclass" : "flonum",
					"numinlets" : 1,
					"numoutlets" : 2,
					"outlettype" : [ "", "bang" ],
					"parameter_enable" : 0,
					"patching_rect" : [ 73.692309200763702, 352.730771541595459, 60.0, 22.0 ],
					"presentation" : 1,
					"presentation_rect" : [ 678.5, 688.0, 60.0, 22.0 ]
				}

			}
, 			{
				"box" : 				{
					"fontname" : "Arial",
					"fontsize" : 12.0,
					"id" : "obj-15",
					"maxclass" : "newobj",
					"numinlets" : 0,
					"numoutlets" : 2,
					"outlettype" : [ "", "" ],
					"patching_rect" : [ 24.192311704158783, 39.0, 73.0, 22.0 ],
					"text" : "shift2hidden"
				}

			}
, 			{
				"box" : 				{
					"bgcolor" : [ 1.0, 1.0, 1.0, 1.0 ],
					"contdata" : 1,
					"ghostbar" : 46,
					"hidden" : 1,
					"id" : "obj-25",
					"maxclass" : "multislider",
					"numinlets" : 1,
					"numoutlets" : 2,
					"outlettype" : [ "", "" ],
					"parameter_enable" : 0,
					"patching_rect" : [ 73.692309200763702, 156.0, 60.0, 190.0 ],
					"presentation" : 1,
					"presentation_rect" : [ 678.5, 104.0, 60.0, 578.0 ],
					"setminmax" : [ 30.0, 15000.0 ],
					"slidercolor" : [ 0.089715, 0.154215, 0.399056, 1.0 ],
					"thickness" : 3
				}

			}
 ],
		"lines" : [ 			{
				"patchline" : 				{
					"destination" : [ "obj-14", 0 ],
					"order" : 0,
					"source" : [ "obj-15", 0 ]
				}

			}
, 			{
				"patchline" : 				{
					"destination" : [ "obj-20", 0 ],
					"source" : [ "obj-15", 1 ]
				}

			}
, 			{
				"patchline" : 				{
					"destination" : [ "obj-25", 0 ],
					"order" : 2,
					"source" : [ "obj-15", 0 ]
				}

			}
, 			{
				"patchline" : 				{
					"destination" : [ "obj-98", 0 ],
					"midpoints" : [ 33.692311704158783, 349.365385770797729, 83.192309200763702, 349.365385770797729 ],
					"order" : 1,
					"source" : [ "obj-15", 0 ]
				}

			}
, 			{
				"patchline" : 				{
					"destination" : [ "obj-98", 0 ],
					"source" : [ "obj-25", 0 ]
				}

			}
 ],
		"dependency_cache" : [ 			{
				"name" : "shift2hidden.maxpat",
				"bootpath" : "~/Dropbox/My Mac (CNMATs-MacBook-Pro.local)/Documents/Max 8/Packages/CNMAT-MMJ-Depot-rebuilt_08082021/patchers/user interface",
				"patcherrelativepath" : ".",
				"type" : "JSON",
				"implicit" : 1
			}
 ],
		"autosave" : 0
	}

}
