{
	"patcher" : 	{
		"fileversion" : 1,
		"appversion" : 		{
			"major" : 8,
			"minor" : 1,
			"revision" : 5,
			"architecture" : "x64",
			"modernui" : 1
		}
,
		"classnamespace" : "box",
		"rect" : [ -636.0, -1001.0, 794.0, 823.0 ],
		"bglocked" : 0,
		"openinpresentation" : 0,
		"default_fontsize" : 11.0,
		"default_fontface" : 0,
		"default_fontname" : "Arial",
		"gridonopen" : 1,
		"gridsize" : [ 4.0, 4.0 ],
		"gridsnaponopen" : 1,
		"objectsnaponopen" : 1,
		"statusbarvisible" : 2,
		"toolbarvisible" : 1,
		"lefttoolbarpinned" : 0,
		"toptoolbarpinned" : 0,
		"righttoolbarpinned" : 0,
		"bottomtoolbarpinned" : 0,
		"toolbars_unpinned_last_save" : 0,
		"tallnewobj" : 0,
		"boxanimatetime" : 200,
		"enablehscroll" : 1,
		"enablevscroll" : 1,
		"devicewidth" : 0.0,
		"description" : "",
		"digest" : "",
		"tags" : "",
		"style" : "",
		"subpatcher_template" : "",
		"assistshowspatchername" : 0,
		"boxes" : [ 			{
				"box" : 				{
					"args" : [ "SDIF-menu2", "menu for selecting a stream from an SDIF file", "0 0 0 0.75" ],
					"bgmode" : 0,
					"border" : 0,
					"clickthrough" : 0,
					"enablehscroll" : 0,
					"enablevscroll" : 0,
					"id" : "obj-1",
					"lockeddragscroll" : 1,
					"maxclass" : "bpatcher",
					"name" : "banner.maxpat",
					"numinlets" : 0,
					"numoutlets" : 0,
					"offset" : [ -18.0, -68.0 ],
					"patching_rect" : [ 4.0, 6.0, 511.0, 76.0 ],
					"prototypename" : "banner",
					"viewvisibility" : 1
				}

			}
, 			{
				"box" : 				{
					"args" : [ "SDIF-menu2", 1, "Michael Zbyszynski and Matt Wright" ],
					"bgmode" : 0,
					"border" : 0,
					"clickthrough" : 0,
					"enablehscroll" : 0,
					"enablevscroll" : 0,
					"id" : "obj-39",
					"lockeddragscroll" : 0,
					"maxclass" : "bpatcher",
					"name" : "badge.maxpat",
					"numinlets" : 0,
					"numoutlets" : 0,
					"offset" : [ 0.0, 0.0 ],
					"patching_rect" : [ 5.0, 741.0, 296.0, 86.0 ],
					"viewvisibility" : 1
				}

			}
, 			{
				"box" : 				{
					"id" : "obj-41",
					"maxclass" : "button",
					"numinlets" : 1,
					"numoutlets" : 1,
					"outlettype" : [ "bang" ],
					"parameter_enable" : 0,
					"patching_rect" : [ 656.0, 594.0, 20.0, 20.0 ]
				}

			}
, 			{
				"box" : 				{
					"fontname" : "Arial",
					"fontsize" : 9.0,
					"id" : "obj-2",
					"linecount" : 2,
					"maxclass" : "comment",
					"numinlets" : 1,
					"numoutlets" : 0,
					"patching_rect" : [ 225.0, 235.0, 109.0, 27.0 ],
					"text" : "choose stream number by sending an integer"
				}

			}
, 			{
				"box" : 				{
					"bgcolor" : [ 0.866667, 0.866667, 0.866667, 1.0 ],
					"fontname" : "Arial",
					"fontsize" : 9.0,
					"htricolor" : [ 0.87, 0.82, 0.24, 1.0 ],
					"id" : "obj-3",
					"maxclass" : "number",
					"numinlets" : 1,
					"numoutlets" : 2,
					"outlettype" : [ "", "bang" ],
					"parameter_enable" : 0,
					"patching_rect" : [ 242.0, 268.0, 35.0, 19.0 ],
					"textcolor" : [ 0.0, 0.0, 0.0, 1.0 ],
					"tricolor" : [ 0.75, 0.75, 0.75, 1.0 ],
					"triscale" : 0.9
				}

			}
, 			{
				"box" : 				{
					"fontname" : "Arial",
					"fontsize" : 9.0,
					"id" : "obj-4",
					"maxclass" : "comment",
					"numinlets" : 1,
					"numoutlets" : 0,
					"patching_rect" : [ 461.0, 186.0, 108.0, 17.0 ],
					"text" : "comes out right outlet"
				}

			}
, 			{
				"box" : 				{
					"bgcolor" : [ 0.866667, 0.866667, 0.866667, 1.0 ],
					"fontname" : "Arial",
					"fontsize" : 9.0,
					"htricolor" : [ 0.87, 0.82, 0.24, 1.0 ],
					"id" : "obj-5",
					"maxclass" : "number",
					"numinlets" : 1,
					"numoutlets" : 2,
					"outlettype" : [ "", "bang" ],
					"parameter_enable" : 0,
					"patching_rect" : [ 656.0, 570.0, 35.0, 19.0 ],
					"textcolor" : [ 0.0, 0.0, 0.0, 1.0 ],
					"tricolor" : [ 0.75, 0.75, 0.75, 1.0 ],
					"triscale" : 0.9
				}

			}
, 			{
				"box" : 				{
					"id" : "obj-6",
					"maxclass" : "toggle",
					"numinlets" : 1,
					"numoutlets" : 1,
					"outlettype" : [ "int" ],
					"parameter_enable" : 0,
					"patching_rect" : [ 463.0, 245.0, 15.0, 15.0 ]
				}

			}
, 			{
				"box" : 				{
					"fontname" : "Arial",
					"fontsize" : 9.0,
					"id" : "obj-7",
					"maxclass" : "message",
					"numinlets" : 2,
					"numoutlets" : 1,
					"outlettype" : [ "" ],
					"patching_rect" : [ 463.0, 265.0, 43.0, 19.0 ],
					"text" : "fsaa $1"
				}

			}
, 			{
				"box" : 				{
					"fontname" : "Arial",
					"fontsize" : 9.0,
					"id" : "obj-8",
					"maxclass" : "newobj",
					"numinlets" : 0,
					"numoutlets" : 1,
					"outlettype" : [ "" ],
					"patcher" : 					{
						"fileversion" : 1,
						"appversion" : 						{
							"major" : 8,
							"minor" : 1,
							"revision" : 5,
							"architecture" : "x64",
							"modernui" : 1
						}
,
						"classnamespace" : "box",
						"rect" : [ 746.0, 108.0, 643.0, 471.0 ],
						"bglocked" : 0,
						"openinpresentation" : 0,
						"default_fontsize" : 11.0,
						"default_fontface" : 0,
						"default_fontname" : "Arial",
						"gridonopen" : 1,
						"gridsize" : [ 4.0, 4.0 ],
						"gridsnaponopen" : 1,
						"objectsnaponopen" : 1,
						"statusbarvisible" : 2,
						"toolbarvisible" : 1,
						"lefttoolbarpinned" : 0,
						"toptoolbarpinned" : 0,
						"righttoolbarpinned" : 0,
						"bottomtoolbarpinned" : 0,
						"toolbars_unpinned_last_save" : 0,
						"tallnewobj" : 0,
						"boxanimatetime" : 200,
						"enablehscroll" : 1,
						"enablevscroll" : 1,
						"devicewidth" : 0.0,
						"description" : "",
						"digest" : "",
						"tags" : "",
						"style" : "",
						"subpatcher_template" : "",
						"assistshowspatchername" : 0,
						"boxes" : [ 							{
								"box" : 								{
									"bgcolor" : [ 0.866667, 0.866667, 0.866667, 1.0 ],
									"fontname" : "Arial",
									"fontsize" : 9.0,
									"htricolor" : [ 0.87, 0.82, 0.24, 1.0 ],
									"id" : "obj-1",
									"maxclass" : "number",
									"numinlets" : 1,
									"numoutlets" : 2,
									"outlettype" : [ "", "bang" ],
									"parameter_enable" : 0,
									"patching_rect" : [ 395.0, 196.0, 35.0, 17.0 ],
									"textcolor" : [ 0.0, 0.0, 0.0, 1.0 ],
									"tricolor" : [ 0.75, 0.75, 0.75, 1.0 ],
									"triscale" : 0.9
								}

							}
, 							{
								"box" : 								{
									"fontname" : "Arial",
									"fontsize" : 9.0,
									"id" : "obj-2",
									"maxclass" : "message",
									"numinlets" : 2,
									"numoutlets" : 1,
									"outlettype" : [ "" ],
									"patching_rect" : [ 395.0, 222.0, 60.0, 15.0 ],
									"text" : "fontsize $1"
								}

							}
, 							{
								"box" : 								{
									"fontname" : "Arial",
									"fontsize" : 18.0,
									"id" : "obj-3",
									"linecount" : 2,
									"maxclass" : "comment",
									"numinlets" : 1,
									"numoutlets" : 0,
									"patching_rect" : [ 356.0, 40.0, 221.0, 48.0 ],
									"text" : "Adjust the font using the following messages:"
								}

							}
, 							{
								"box" : 								{
									"hidden" : 1,
									"id" : "obj-4",
									"maxclass" : "button",
									"numinlets" : 1,
									"numoutlets" : 1,
									"outlettype" : [ "bang" ],
									"parameter_enable" : 0,
									"patching_rect" : [ 311.0, 303.0, 15.0, 15.0 ]
								}

							}
, 							{
								"box" : 								{
									"hidden" : 1,
									"id" : "obj-5",
									"maxclass" : "button",
									"numinlets" : 1,
									"numoutlets" : 1,
									"outlettype" : [ "bang" ],
									"parameter_enable" : 0,
									"patching_rect" : [ 311.0, 25.0, 15.0, 15.0 ]
								}

							}
, 							{
								"box" : 								{
									"fontname" : "Arial",
									"fontsize" : 9.0,
									"id" : "obj-6",
									"maxclass" : "newobj",
									"numinlets" : 1,
									"numoutlets" : 1,
									"outlettype" : [ "" ],
									"patching_rect" : [ 356.0, 176.0, 65.0, 17.0 ],
									"text" : "prepend font"
								}

							}
, 							{
								"box" : 								{
									"allowdrag" : 0,
									"fontname" : "Arial",
									"fontsize" : 9.0,
									"id" : "obj-7",
									"items" : [ "A bite", ",", "A Lolita Scorned Scorned", ",", "Abadi MT Condensed Extra Bold", ",", "Abadi MT Condensed Light", ",", "Ableton Sans Bold", ",", "Ableton Sans Light", ",", "Ableton Sans Medium", ",", "Academy Engraved LET Plain", ",", "Admiration Pains ", ",", "Al Bayan Plain", ",", "Al Bayan Bold", ",", "Al Nile", ",", "Al Nile Bold", ",", "Al Tarikh", ",", "American Captain", ",", "American Typewriter", ",", "American Typewriter Light", ",", "American Typewriter Semibold", ",", "American Typewriter Bold", ",", "American Typewriter Condensed", ",", "American Typewriter Condensed Light", ",", "American Typewriter Condensed Bold", ",", "Andale Mono", ",", "Apple Braille Outline 6 Dot", ",", "Apple Braille Outline 8 Dot", ",", "Apple Braille Pinpoint 6 Dot", ",", "Apple Braille Pinpoint 8 Dot", ",", "Apple Braille", ",", "Apple Chancery Chancery", ",", "Apple Color Emoji", ",", "Apple SD Gothic Neo", ",", "Apple SD Gothic Neo Thin", ",", "Apple SD Gothic Neo UltraLight", ",", "Apple SD Gothic Neo Light", ",", "Apple SD Gothic Neo Medium", ",", "Apple SD Gothic Neo SemiBold", ",", "Apple SD Gothic Neo Bold", ",", "Apple SD Gothic Neo ExtraBold", ",", "Apple SD Gothic Neo Heavy", ",", "Apple Symbols", ",", "AppleGothic", ",", "AppleMyungjo", ",", "Arial", ",", "Arial Italic", ",", "Arial Bold", ",", "Arial Bold Italic", ",", "Arial Black", ",", "Arial Hebrew", ",", "Arial Hebrew Light", ",", "Arial Hebrew Bold", ",", "Arial Hebrew Scholar", ",", "Arial Hebrew Scholar Light", ",", "Arial Hebrew Scholar Bold", ",", "Arial Narrow", ",", "Arial Narrow Italic", ",", "Arial Narrow Bold", ",", "Arial Narrow Bold Italic", ",", "Arial Rounded MT Bold", ",", "Arial Unicode MS", ",", "Athelas", ",", "Athelas Italic", ",", "Athelas Bold", ",", "Athelas Bold Italic", ",", "Avenir Book", ",", "Avenir Roman", ",", "Avenir Book Oblique", ",", "Avenir Oblique", ",", "Avenir Light", ",", "Avenir Light Oblique", ",", "Avenir Medium", ",", "Avenir Medium Oblique", ",", "Avenir Heavy", ",", "Avenir Heavy Oblique", ",", "Avenir Black", ",", "Avenir Black Oblique", ",", "Avenir Next", ",", "Avenir Next Italic", ",", "Avenir Next Ultra Light", ",", "Avenir Next Ultra Light Italic", ",", "Avenir Next Medium", ",", "Avenir Next Medium Italic", ",", "Avenir Next Demi Bold", ",", "Avenir Next Demi Bold Italic", ",", "Avenir Next Bold", ",", "Avenir Next Bold Italic", ",", "Avenir Next Heavy", ",", "Avenir Next Heavy Italic", ",", "Avenir Next Condensed", ",", "Avenir Next Condensed Italic", ",", "Avenir Next Condensed Ultra Light", ",", "Avenir Next Condensed Ultra Light Italic", ",", "Avenir Next Condensed Medium", ",", "Avenir Next Condensed Medium Italic", ",", "Avenir Next Condensed Demi Bold", ",", "Avenir Next Condensed Demi Bold Italic", ",", "Avenir Next Condensed Bold", ",", "Avenir Next Condensed Bold Italic", ",", "Avenir Next Condensed Heavy", ",", "Avenir Next Condensed Heavy Italic", ",", "AvidOmnes Light", ",", "AvidOmnes Medium", ",", "Ayuthaya", ",", "Baghdad", ",", "Bangla MN", ",", "Bangla MN Bold", ",", "Bangla Sangam MN", ",", "Bangla Sangam MN Bold", ",", "Bank Gothic Light", ",", "Bank Gothic Medium", ",", "basic title font", ",", "Baskerville", ",", "Baskerville Italic", ",", "Baskerville SemiBold", ",", "Baskerville SemiBold Italic", ",", "Baskerville Bold", ",", "Baskerville Bold Italic", ",", "Baskerville Old Face", ",", "Batang", ",", "Bauhaus 93", ",", "Beirut", ",", "Bell MT", ",", "Bell MT Italic", ",", "Bell MT Bold", ",", "Berlin Sans FB Demi Bold", ",", "Bernard MT Condensed", ",", "Big Caslon Medium", ",", "BigNoodleTitling", ",", "BigNoodleTitling Oblique", ",", "BistroSketch Medium", ",", "Blackmoor LET Plain", ",", "BlairMdITC TT Medium", ",", "Bleeding Cowboys", ",", "Bodoni 72 Book", ",", "Bodoni 72 Book Italic", ",", "Bodoni 72 Bold", ",", "Bodoni 72 Oldstyle Book", ",", "Bodoni 72 Oldstyle Book Italic", ",", "Bodoni 72 Oldstyle Bold", ",", "Bodoni 72 Smallcaps Book", ",", "Bodoni Ornaments", ",", "Book Antiqua", ",", "Book Antiqua Italic", ",", "Book Antiqua Bold", ",", "Book Antiqua Bold Italic", ",", "Bookman Old Style", ",", "Bookman Old Style Italic", ",", "Bookman Old Style Bold", ",", "Bookman Old Style Bold Italic", ",", "Bookshelf Symbol 7", ",", "Bordeaux Roman Bold LET Plain", ",", "Bradley Hand Bold", ",", "Braggadocio", ",", "Britannic Bold", ",", "Brush Script MT Italic", ",", "Calibri", ",", "Calibri Italic", ",", "Calibri Bold", ",", "Calibri Bold Italic", ",", "Calisto MT", ",", "Calisto MT Italic", ",", "Calisto MT Bold", ",", "Calisto MT Bold Italic", ",", "Cambria", ",", "Cambria Italic", ",", "Cambria Bold", ",", "Cambria Bold Italic", ",", "Candara", ",", "Candara Italic", ",", "Candara Bold", ",", "Candara Bold Italic", ",", "Capitals", ",", "Casual", ",", "Caveman", ",", "Century", ",", "Century Gothic", ",", "Century Gothic Italic", ",", "Century Gothic Bold", ",", "Century Gothic Bold Italic", ",", "Century Schoolbook", ",", "Century Schoolbook Italic", ",", "Century Schoolbook Bold", ",", "Century Schoolbook Bold Italic", ",", "Chalkboard", ",", "Chalkboard Bold", ",", "Chalkboard SE", ",", "Chalkboard SE Light", ",", "Chalkboard SE Bold", ",", "Chalkduster", ",", "Characteristic", ",", "Charter Roman", ",", "Charter Italic", ",", "Charter Bold", ",", "Charter Bold Italic", ",", "Charter Black", ",", "Charter Black Italic", ",", "Cochin", ",", "Cochin Italic", ",", "Cochin Bold", ",", "Cochin Bold Italic", ",", "Colonna MT", ",", "Comic Sans MS", ",", "Comic Sans MS Bold", ",", "Concielian", ",", "Concielian 3D 3D", ",", "Concielian Bold Bold", ",", "Concielian Condensed Condensed", ",", "Concielian Expanded Expanded", ",", "Concielian Light Light", ",", "Consolas", ",", "Consolas Italic", ",", "Consolas Bold", ",", "Consolas Bold Italic", ",", "Constantia", ",", "Constantia Italic", ",", "Constantia Bold", ",", "Constantia Bold Italic", ",", "Cooper Black", ",", "Copperplate", ",", "Copperplate Light", ",", "Copperplate Bold", ",", "Copperplate Gothic Bold", ",", "Copperplate Gothic Light", ",", "Corbel", ",", "Corbel Italic", ",", "Corbel Bold", ",", "Corbel Bold Italic", ",", "Corsiva Hebrew", ",", "Corsiva Hebrew Bold", ",", "Courier", ",", "Courier Oblique", ",", "Courier Bold", ",", "Courier Bold Oblique", ",", "Courier New", ",", "Courier New Italic", ",", "Courier New Bold", ",", "Courier New Bold Italic", ",", "Cracked", ",", "Curlz MT", ",", "Damascus", ",", "Damascus Light", ",", "Damascus Medium", ",", "Damascus Semi Bold", ",", "Damascus Bold", ",", "DecoType Naskh", ",", "DejaVu Sans Oblique", ",", "DejaVu Sans Book", ",", "DejaVu Sans Bold", ",", "DejaVu Sans Bold Oblique", ",", "Desdemona", ",", "Devanagari MT", ",", "Devanagari MT Bold", ",", "Devanagari Sangam MN", ",", "Devanagari Sangam MN Bold", ",", "Didot", ",", "Didot Italic", ",", "Didot Bold", ",", "DIN Alternate Bold", ",", "DIN Condensed Bold", ",", "Diwan Kufi", ",", "Diwan Thuluth", ",", "Edwardian Script ITC", ",", "Engravers MT", ",", "Engravers MT Bold", ",", "Euphemia UCAS", ",", "Euphemia UCAS Italic", ",", "Euphemia UCAS Bold", ",", "Eurostile", ",", "Eurostile Bold", ",", "Farah", ",", "Farisi", ",", "Footlight MT Light", ",", "Franklin Gothic Book", ",", "Franklin Gothic Book Italic", ",", "Franklin Gothic Medium", ",", "Franklin Gothic Medium Italic", ",", "Friday Lovers", ",", "Futura Medium", ",", "Futura Medium Italic", ",", "Futura Bold", ",", "Futura Condensed Medium", ",", "Futura Condensed ExtraBold", ",", "Garamond", ",", "Garamond Italic", ",", "Garamond Bold", ",", "GB18030 Bitmap", ",", "Geeza Pro", ",", "Geeza Pro Bold", ",", "Geneva", ",", "Georgia", ",", "Georgia Italic", ",", "Georgia Bold", ",", "Georgia Bold Italic", ",", "Gill Sans", ",", "Gill Sans Italic", ",", "Gill Sans Light", ",", "Gill Sans Light Italic", ",", "Gill Sans SemiBold", ",", "Gill Sans SemiBold Italic", ",", "Gill Sans Bold", ",", "Gill Sans Bold Italic", ",", "Gill Sans UltraBold", ",", "Gill Sans MT", ",", "Gill Sans MT Italic", ",", "Gill Sans MT Bold", ",", "Gill Sans MT Bold Italic", ",", "Ginga>", ",", "Gloucester MT Extra Condensed", ",", "Goudy Old Style Italic", ",", "Goudy Old Style", ",", "Goudy Old Style Bold", ",", "Gujarati MT", ",", "Gujarati MT Bold", ",", "Gujarati Sangam MN", ",", "Gujarati Sangam MN Bold", ",", "Gulim", ",", "Gurmukhi MN", ",", "Gurmukhi MN Bold", ",", "Gurmukhi MT", ",", "Gurmukhi Sangam MN", ",", "Gurmukhi Sangam MN Bold", ",", "Haettenschweiler", ",", "Handwriting - Dakota", ",", "Harrington", ",", "Heiti SC Light", ",", "Heiti SC Medium", ",", "Heiti TC Light", ",", "Heiti TC Medium", ",", "Helsinki Metronome Std", ",", "Helsinki Special Std", ",", "Helsinki Std", ",", "Helsinki Text Std", ",", "Helvetica", ",", "Helvetica Oblique", ",", "Helvetica Light", ",", "Helvetica Light Oblique", ",", "Helvetica Bold", ",", "Helvetica Bold Oblique", ",", "Helvetica Neue", ",", "Helvetica Neue Italic", ",", "Helvetica Neue UltraLight", ",", "Helvetica Neue UltraLight Italic", ",", "Helvetica Neue Thin", ",", "Helvetica Neue Thin Italic", ",", "Helvetica Neue Light", ",", "Helvetica Neue Light Italic", ",", "Helvetica Neue Medium", ",", "Helvetica Neue Medium Italic", ",", "Helvetica Neue Bold", ",", "Helvetica Neue Bold Italic", ",", "Helvetica Neue Condensed Bold", ",", "Helvetica Neue Condensed Black", ",", "Herculanum", ",", "High Volume", ",", "Hiragino Kaku Gothic Pro W3", ",", "Hiragino Kaku Gothic Pro W6", ",", "Hiragino Kaku Gothic ProN W3", ",", "Hiragino Kaku Gothic ProN W6", ",", "Hiragino Kaku Gothic Std W8", ",", "Hiragino Kaku Gothic StdN W8", ",", "Hiragino Maru Gothic Pro W4", ",", "Hiragino Maru Gothic ProN W4", ",", "Hiragino Mincho Pro W3", ",", "Hiragino Mincho Pro W6", ",", "Hiragino Mincho ProN W3", ",", "Hiragino Mincho ProN W6", ",", "Hiragino Sans W0", ",", "Hiragino Sans W1", ",", "Hiragino Sans W2", ",", "Hiragino Sans W3", ",", "Hiragino Sans W4", ",", "Hiragino Sans W5", ",", "Hiragino Sans W6", ",", "Hiragino Sans W7", ",", "Hiragino Sans W8", ",", "Hiragino Sans W9", ",", "Hiragino Sans GB W3", ",", "Hiragino Sans GB W6", ",", "Hoefler Text", ",", "Hoefler Text Ornaments", ",", "Hoefler Text Italic", ",", "Hoefler Text Black", ",", "Hoefler Text Black Italic", ",", "Impact", ",", "Imprint MT Shadow", ",", "InaiMathi", ",", "InaiMathi Bold", ",", "Inkpen2 Chords Std", ",", "Inkpen2 Metronome Std", ",", "Inkpen2 Script Std", ",", "Inkpen2 Special Std", ",", "Inkpen2 Std", ",", "Inkpen2 Text Std", ",", "Iowan Old Style Roman", ",", "Iowan Old Style Titling", ",", "Iowan Old Style Italic", ",", "Iowan Old Style Bold", ",", "Iowan Old Style Bold Italic", ",", "Iowan Old Style Black", ",", "Iowan Old Style Black Italic", ",", "ITF Devanagari Book", ",", "ITF Devanagari Light", ",", "ITF Devanagari Medium", ",", "ITF Devanagari Demi", ",", "ITF Devanagari Bold", ",", "ITF Devanagari Marathi Book", ",", "ITF Devanagari Marathi Light", ",", "ITF Devanagari Marathi Medium", ",", "ITF Devanagari Marathi Demi", ",", "ITF Devanagari Marathi Bold", ",", "Jazz LET Plain", ",", "Kailasa", ",", "Kailasa Bold", ",", "Kannada MN", ",", "Kannada MN Bold", ",", "Kannada Sangam MN", ",", "Kannada Sangam MN Bold", ",", "Kefa", ",", "Kefa Bold", ",", "Khmer MN", ",", "Khmer MN Bold", ",", "Khmer Sangam MN", ",", "Kino MT", ",", "Kohinoor Bangla", ",", "Kohinoor Bangla Light", ",", "Kohinoor Bangla Medium", ",", "Kohinoor Bangla Semibold", ",", "Kohinoor Bangla Bold", ",", "Kohinoor Devanagari", ",", "Kohinoor Devanagari Light", ",", "Kohinoor Devanagari Medium", ",", "Kohinoor Devanagari Semibold", ",", "Kohinoor Devanagari Bold", ",", "Kohinoor Telugu", ",", "Kohinoor Telugu Light", ",", "Kohinoor Telugu Medium", ",", "Kohinoor Telugu Semibold", ",", "Kohinoor Telugu Bold", ",", "Kokonor", ",", "Krungthep", ",", "KufiStandardGK", ",", "Lao MN", ",", "Lao MN Bold", ",", "Lao Sangam MN", ",", "Lato", ",", "Lato Italic", ",", "Lato Hairline", ",", "Lato Hairline Italic", ",", "Lato Light", ",", "Lato Light Italic", ",", "Lato Medium", ",", "Lato Medium Italic", ",", "Lato Semibold", ",", "Lato Semibold Italic", ",", "Lato Bold", ",", "Lato Bold Italic", ",", "Lato Heavy", ",", "Lato Heavy Italic", ",", "Lato Black", ",", "Lato Black Italic", ",", "Lato Thin", ",", "Lato Thin Italic", ",", "LG Display11_Light", ",", "Lighthouse Personal Use", ",", "Lintsec", ",", "Lucida Blackletter", ",", "Lucida Bright", ",", "Lucida Bright Italic", ",", "Lucida Bright Demibold", ",", "Lucida Bright Demibold Italic", ",", "Lucida Calligraphy Italic", ",", "Lucida Console", ",", "Lucida Fax", ",", "Lucida Fax Italic", ",", "Lucida Fax Demibold", ",", "Lucida Fax Demibold Italic", ",", "Lucida Grande", ",", "Lucida Grande Bold", ",", "Lucida Handwriting Italic", ",", "Lucida Sans", ",", "Lucida Sans Italic", ",", "Lucida Sans Demibold Roman", ",", "Lucida Sans Demibold Italic", ",", "Lucida Sans Typewriter", ",", "Lucida Sans Typewriter Oblique", ",", "Lucida Sans Typewriter Bold", ",", "Lucida Sans Typewriter Bold Oblique", ",", "Lucida Sans Unicode", ",", "Luminari", ",", "Malayalam MN", ",", "Malayalam MN Bold", ",", "Malayalam Sangam MN", ",", "Malayalam Sangam MN Bold", ",", "Marion", ",", "Marion Italic", ",", "Marion Bold", ",", "Marker Felt Thin", ",", "Marker Felt Wide", ",", "Marlett", ",", "Matura MT Script Capitals", ",", "Meiryo", ",", "Meiryo Italic", ",", "Meiryo Bold", ",", "Meiryo Bold Italic", ",", "Menlo", ",", "Menlo Italic", ",", "Menlo Bold", ",", "Menlo Bold Italic", ",", "Microsoft Sans Serif", ",", "Mishafi", ",", "Mishafi Gold", ",", "Mistral", ",", "Modern No. 20", ",", "Mona Lisa Solid ITC TT", ",", "Monaco", ",", "Monotype Corsiva", ",", "Monotype Sorts", ",", "MS Gothic", ",", "MS Mincho", ",", "MS PGothic", ",", "MS PMincho", ",", "MS Reference Sans Serif", ",", "MS Reference Specialty", ",", "Mshtakan", ",", "Mshtakan Oblique", ",", "Mshtakan Bold", ",", "Mshtakan BoldOblique", ",", "MT Extra", ",", "Muna", ",", "Muna Bold", ",", "Muna Black", ",", "Myanmar MN", ",", "Myanmar MN Bold", ",", "Myanmar Sangam MN", ",", "Myanmar Sangam MN Bold", ",", "Nadeem", ",", "New Peninim MT", ",", "New Peninim MT Inclined", ",", "New Peninim MT Bold", ",", "New Peninim MT Bold Inclined", ",", "News Gothic MT", ",", "News Gothic MT Italic", ",", "News Gothic MT Bold", ",", "Niveau Grotesk", ",", "Niveau Grotesk ExtraLight", ",", "Niveau Grotesk Light", ",", "Niveau Grotesk Light Italic", ",", "Niveau Grotesk Medium", ",", "Niveau Grotesk Bold", ",", "Noteworthy Light", ",", "Noteworthy Bold", ",", "Noto Nastaliq Urdu", ",", "November for bach", ",", "Onyx", ",", "Optima", ",", "Optima Italic", ",", "Optima Bold", ",", "Optima Bold Italic", ",", "Optima ExtraBlack", ",", "Opus Big Time Std", ",", "Opus Chords Sans Condensed Std", ",", "Opus Chords Sans Std", ",", "Opus Chords Std", ",", "Opus Figured Bass Extras Std", ",", "Opus Figured Bass Std", ",", "Opus Function Symbols Std", ",", "Opus Metronome Std", ",", "Opus Note Names Std", ",", "Opus Ornaments Std", ",", "Opus Percussion Std", ",", "Opus PlainChords Std", ",", "Opus Roman Chords Std", ",", "Opus Special Extra Std", ",", "Opus Special Std", ",", "Opus Std", ",", "Opus Text Std", ",", "Oriya MN", ",", "Oriya MN Bold", ",", "Oriya Sangam MN", ",", "Oriya Sangam MN Bold", ",", "Palatino", ",", "Palatino Italic", ",", "Palatino Bold", ",", "Palatino Bold Italic", ",", "Papyrus", ",", "Papyrus Condensed", ",", "Party LET Plain", ",", "Perpetua", ",", "Perpetua Italic", ",", "Perpetua Bold", ",", "Perpetua Bold Italic", ",", "Perpetua Titling MT Light", ",", "Perpetua Titling MT Bold", ",", "Phosphate Inline", ",", "Phosphate Solid", ",", "PingFang HK", ",", "PingFang HK Ultralight", ",", "PingFang HK Thin", ",", "PingFang HK Light", ",", "PingFang HK Medium", ",", "PingFang HK Semibold", ",", "PingFang SC", ",", "PingFang SC Ultralight", ",", "PingFang SC Thin", ",", "PingFang SC Light", ",", "PingFang SC Medium", ",", "PingFang SC Semibold", ",", "PingFang TC", ",", "PingFang TC Ultralight", ",", "PingFang TC Thin", ",", "PingFang TC Light", ",", "PingFang TC Medium", ",", "PingFang TC Semibold", ",", "Plantagenet Cherokee", ",", "Plantin MT Std", ",", "Plantin MT Std Italic", ",", "Plantin MT Std Bold", ",", "Plantin MT Std Bold Italic", ",", "Playbill", ",", "PMingLiU", ",", "PortagoITC TT", ",", "Princetown LET", ",", "PT Mono", ",", "PT Mono Bold", ",", "PT Sans", ",", "PT Sans Italic", ",", "PT Sans Bold", ",", "PT Sans Bold Italic", ",", "PT Sans Caption", ",", "PT Sans Caption Bold", ",", "PT Sans Narrow", ",", "PT Sans Narrow Bold", ",", "PT Serif", ",", "PT Serif Italic", ",", "PT Serif Bold", ",", "PT Serif Bold Italic", ",", "PT Serif Caption", ",", "PT Serif Caption Italic", ",", "Raanana", ",", "Raanana Bold", ",", "Reprise Big Time Std", ",", "Reprise Chords Std", ",", "Reprise Metronome Std", ",", "Reprise Rehearsal Std", ",", "Reprise Script Std", ",", "Reprise Special Std", ",", "Reprise Stamp Std", ",", "Reprise Std", ",", "Reprise Text Std", ",", "Reprise Title Std", ",", "Rockwell", ",", "Rockwell", ",", "Rockwell Italic", ",", "Rockwell Bold", ",", "Rockwell Bold Italic", ",", "Rockwell Extra Bold", ",", "Sana", ",", "Santa Fe LET Plain", ",", "Sathu", ",", "Savoye LET Plain", ",", "SchoolHouse Cursive B", ",", "SchoolHouse Printed A", ",", "Seravek", ",", "Seravek Italic", ",", "Seravek ExtraLight", ",", "Seravek ExtraLight Italic", ",", "Seravek Light", ",", "Seravek Light Italic", ",", "Seravek Medium", ",", "Seravek Medium Italic", ",", "Seravek Bold", ",", "Seravek Bold Italic", ",", "Shree Devanagari 714", ",", "Shree Devanagari 714 Italic", ",", "Shree Devanagari 714 Bold", ",", "Shree Devanagari 714 Bold Italic", ",", "SignPainter HouseScript", ",", "SignPainter HouseScript Semibold", ",", "Silom", ",", "SimSun", ",", "Sinhala MN", ",", "Sinhala MN Bold", ",", "Sinhala Sangam MN", ",", "Sinhala Sangam MN Bold", ",", "Skia", ",", "Skia Light", ",", "Skia Bold", ",", "Skia Black", ",", "Skia Extended", ",", "Skia Light Extended", ",", "Skia Black Extended", ",", "Skia Condensed", ",", "Skia Light Condensed", ",", "Skia Black Condensed", ",", "Snell Roundhand", ",", "Snell Roundhand Bold", ",", "Snell Roundhand Black", ",", "Songti SC", ",", "Songti SC Light", ",", "Songti SC Bold", ",", "Songti SC Black", ",", "Songti TC", ",", "Songti TC Light", ",", "Songti TC Bold", ",", "Star Jedi", ",", "Star Jedi Hollow", ",", "Stencil", ",", "STIXGeneral", ",", "STIXGeneral Italic", ",", "STIXGeneral Bold", ",", "STIXGeneral Bold Italic", ",", "STIXIntegralsD", ",", "STIXIntegralsD Bold", ",", "STIXIntegralsSm", ",", "STIXIntegralsSm Bold", ",", "STIXIntegralsUp", ",", "STIXIntegralsUp Bold", ",", "STIXIntegralsUpD", ",", "STIXIntegralsUpD Bold", ",", "STIXIntegralsUpSm", ",", "STIXIntegralsUpSm Bold", ",", "STIXNonUnicode", ",", "STIXNonUnicode Italic", ",", "STIXNonUnicode Bold", ",", "STIXNonUnicode Bold Italic", ",", "STIXSizeFiveSym", ",", "STIXSizeFourSym", ",", "STIXSizeFourSym Bold", ",", "STIXSizeOneSym", ",", "STIXSizeOneSym Bold", ",", "STIXSizeThreeSym", ",", "STIXSizeThreeSym Bold", ",", "STIXSizeTwoSym", ",", "STIXSizeTwoSym Bold", ",", "STIXVariants", ",", "STIXVariants Bold", ",", "Stone Sans ITC TT Bold", ",", "Stone Sans Sem ITC TT Semi", ",", "Stone Sans Sem ITC TT SemiIta", ",", "STSong", ",", "Sukhumvit Set Text", ",", "Sukhumvit Set Light", ",", "Sukhumvit Set Medium", ",", "Sukhumvit Set Semi Bold", ",", "Sukhumvit Set Bold", ",", "Sukhumvit Set Thin", ",", "Superclarendon", ",", "Superclarendon Italic", ",", "Superclarendon Light", ",", "Superclarendon Light Italic", ",", "Superclarendon Bold", ",", "Superclarendon Bold Italic", ",", "Superclarendon Black", ",", "Superclarendon Black Italic", ",", "Symbol", ",", "Synchro LET", ",", "Tahoma", ",", "Tahoma Bold", ",", "Tamil MN", ",", "Tamil MN Bold", ",", "Tamil Sangam MN", ",", "Tamil Sangam MN Bold", ",", "Telugu MN", ",", "Telugu MN Bold", ",", "Telugu Sangam MN", ",", "Telugu Sangam MN Bold", ",", "Thonburi", ",", "Thonburi Light", ",", "Thonburi Bold", ",", "TI-Nspire", ",", "TI-Nspire Italic", ",", "TI-Nspire Bold", ",", "TI-Nspire Bold Italic", ",", "TI-Nspire Sans", ",", "TI-Nspire Sans Italic", ",", "TI-Nspire Sans Bold", ",", "TI-Nspire Sans Bold Italic", ",", "Times", ",", "Times Italic", ",", "Times Bold", ",", "Times Bold Italic", ",", "Times New Roman", ",", "Times New Roman Italic", ",", "Times New Roman Bold", ",", "Times New Roman Bold Italic", ",", "TINspireKeys", ",", "TINspireKeysChinese", ",", "TINspireKeysCX", ",", "TINspireKeysTouch", ",", "Trattatello", ",", "Trebuchet MS", ",", "Trebuchet MS Italic", ",", "Trebuchet MS Bold", ",", "Trebuchet MS Bold Italic", ",", "True Lies", ",", "Tw Cen MT", ",", "Tw Cen MT Italic", ",", "Tw Cen MT Bold", ",", "Tw Cen MT Bold Italic", ",", "Type Embellishments One LET Embellishments One LET Plain", ",", "Verdana", ",", "Verdana Italic", ",", "Verdana Bold", ",", "Verdana Bold Italic", ",", "Waseem", ",", "Waseem Light", ",", "Webdings", ",", "Wide Latin", ",", "Wingdings", ",", "Wingdings", ",", "Wingdings 2", ",", "Wingdings 3", ",", "Zapf Dingbats", ",", "Zapfino" ],
									"maxclass" : "umenu",
									"numinlets" : 1,
									"numoutlets" : 3,
									"outlettype" : [ "int", "", "" ],
									"parameter_enable" : 0,
									"patching_rect" : [ 356.0, 151.0, 220.0, 17.0 ]
								}

							}
, 							{
								"box" : 								{
									"fontname" : "Arial",
									"fontsize" : 9.0,
									"id" : "obj-8",
									"maxclass" : "newobj",
									"numinlets" : 1,
									"numoutlets" : 1,
									"outlettype" : [ "" ],
									"patching_rect" : [ 356.0, 125.0, 37.0, 17.0 ],
									"text" : "fontlist"
								}

							}
, 							{
								"box" : 								{
									"fontname" : "Arial",
									"fontsize" : 9.0,
									"id" : "obj-9",
									"maxclass" : "newobj",
									"numinlets" : 1,
									"numoutlets" : 1,
									"outlettype" : [ "bang" ],
									"patching_rect" : [ 356.0, 104.0, 48.0, 17.0 ],
									"text" : "loadbang"
								}

							}
, 							{
								"box" : 								{
									"fontname" : "Arial",
									"fontsize" : 9.0,
									"hidden" : 1,
									"id" : "obj-10",
									"maxclass" : "message",
									"numinlets" : 2,
									"numoutlets" : 1,
									"outlettype" : [ "" ],
									"patching_rect" : [ 15.0, 237.0, 69.0, 15.0 ],
									"text" : "saturation $1"
								}

							}
, 							{
								"box" : 								{
									"fontname" : "Arial",
									"fontsize" : 9.0,
									"hidden" : 1,
									"id" : "obj-11",
									"maxclass" : "message",
									"numinlets" : 2,
									"numoutlets" : 1,
									"outlettype" : [ "" ],
									"patching_rect" : [ 13.0, 168.0, 69.0, 15.0 ],
									"text" : "saturation $1"
								}

							}
, 							{
								"box" : 								{
									"id" : "obj-12",
									"maxclass" : "slider",
									"numinlets" : 1,
									"numoutlets" : 1,
									"orientation" : 2,
									"outlettype" : [ "" ],
									"parameter_enable" : 0,
									"patching_rect" : [ 88.0, 224.0, 13.0, 34.0 ],
									"size" : 256.0
								}

							}
, 							{
								"box" : 								{
									"id" : "obj-13",
									"maxclass" : "slider",
									"numinlets" : 1,
									"numoutlets" : 1,
									"orientation" : 2,
									"outlettype" : [ "" ],
									"parameter_enable" : 0,
									"patching_rect" : [ 88.0, 158.0, 13.0, 34.0 ],
									"size" : 256.0
								}

							}
, 							{
								"box" : 								{
									"id" : "obj-14",
									"maxclass" : "slider",
									"numinlets" : 1,
									"numoutlets" : 1,
									"orientation" : 2,
									"outlettype" : [ "" ],
									"parameter_enable" : 0,
									"patching_rect" : [ 88.0, 93.0, 13.0, 34.0 ],
									"size" : 256.0
								}

							}
, 							{
								"box" : 								{
									"fontname" : "Arial",
									"fontsize" : 9.0,
									"hidden" : 1,
									"id" : "obj-15",
									"maxclass" : "message",
									"numinlets" : 2,
									"numoutlets" : 1,
									"outlettype" : [ "" ],
									"patching_rect" : [ 7.0, 104.0, 69.0, 15.0 ],
									"text" : "saturation $1"
								}

							}
, 							{
								"box" : 								{
									"id" : "obj-16",
									"maxclass" : "swatch",
									"numinlets" : 3,
									"numoutlets" : 2,
									"outlettype" : [ "", "float" ],
									"parameter_enable" : 0,
									"patching_rect" : [ 101.0, 224.0, 128.0, 33.0 ],
									"saturation" : 1.0
								}

							}
, 							{
								"box" : 								{
									"fontname" : "Arial",
									"fontsize" : 9.0,
									"id" : "obj-17",
									"maxclass" : "message",
									"numinlets" : 2,
									"numoutlets" : 1,
									"outlettype" : [ "" ],
									"patching_rect" : [ 101.0, 268.0, 73.0, 15.0 ],
									"text" : "frgb $1 $2 $3"
								}

							}
, 							{
								"box" : 								{
									"id" : "obj-18",
									"maxclass" : "swatch",
									"numinlets" : 3,
									"numoutlets" : 2,
									"outlettype" : [ "", "float" ],
									"parameter_enable" : 0,
									"patching_rect" : [ 101.0, 158.0, 129.0, 34.0 ],
									"saturation" : 1.0
								}

							}
, 							{
								"box" : 								{
									"fontname" : "Arial",
									"fontsize" : 9.0,
									"id" : "obj-19",
									"maxclass" : "message",
									"numinlets" : 2,
									"numoutlets" : 1,
									"outlettype" : [ "" ],
									"patching_rect" : [ 101.0, 202.0, 74.0, 15.0 ],
									"text" : "brgb $1 $2 $3"
								}

							}
, 							{
								"box" : 								{
									"comment" : "",
									"id" : "obj-20",
									"index" : 1,
									"maxclass" : "outlet",
									"numinlets" : 1,
									"numoutlets" : 0,
									"patching_rect" : [ 27.0, 353.0, 15.0, 15.0 ]
								}

							}
, 							{
								"box" : 								{
									"id" : "obj-21",
									"maxclass" : "swatch",
									"numinlets" : 3,
									"numoutlets" : 2,
									"outlettype" : [ "", "float" ],
									"parameter_enable" : 0,
									"patching_rect" : [ 101.0, 93.0, 129.0, 34.0 ],
									"saturation" : 1.0
								}

							}
, 							{
								"box" : 								{
									"fontname" : "Arial",
									"fontsize" : 9.0,
									"id" : "obj-22",
									"maxclass" : "message",
									"numinlets" : 2,
									"numoutlets" : 1,
									"outlettype" : [ "" ],
									"patching_rect" : [ 101.0, 131.0, 92.0, 15.0 ],
									"text" : "highlight $1 $2 $3"
								}

							}
, 							{
								"box" : 								{
									"fontname" : "Arial",
									"fontsize" : 18.0,
									"id" : "obj-23",
									"linecount" : 2,
									"maxclass" : "comment",
									"numinlets" : 1,
									"numoutlets" : 0,
									"patching_rect" : [ 30.0, 39.0, 281.0, 48.0 ],
									"text" : "Adjust colors for SDIF-menu2 using the following messages:"
								}

							}
 ],
						"lines" : [ 							{
								"patchline" : 								{
									"destination" : [ "obj-2", 0 ],
									"source" : [ "obj-1", 0 ]
								}

							}
, 							{
								"patchline" : 								{
									"destination" : [ "obj-16", 0 ],
									"hidden" : 1,
									"source" : [ "obj-10", 0 ]
								}

							}
, 							{
								"patchline" : 								{
									"destination" : [ "obj-18", 0 ],
									"hidden" : 1,
									"source" : [ "obj-11", 0 ]
								}

							}
, 							{
								"patchline" : 								{
									"destination" : [ "obj-10", 0 ],
									"hidden" : 1,
									"source" : [ "obj-12", 0 ]
								}

							}
, 							{
								"patchline" : 								{
									"destination" : [ "obj-11", 0 ],
									"hidden" : 1,
									"source" : [ "obj-13", 0 ]
								}

							}
, 							{
								"patchline" : 								{
									"destination" : [ "obj-15", 0 ],
									"hidden" : 1,
									"source" : [ "obj-14", 0 ]
								}

							}
, 							{
								"patchline" : 								{
									"destination" : [ "obj-21", 0 ],
									"hidden" : 1,
									"source" : [ "obj-15", 0 ]
								}

							}
, 							{
								"patchline" : 								{
									"destination" : [ "obj-17", 0 ],
									"source" : [ "obj-16", 0 ]
								}

							}
, 							{
								"patchline" : 								{
									"destination" : [ "obj-20", 0 ],
									"midpoints" : [ 110.5, 291.0, 36.0, 291.0 ],
									"source" : [ "obj-17", 0 ]
								}

							}
, 							{
								"patchline" : 								{
									"destination" : [ "obj-19", 0 ],
									"source" : [ "obj-18", 0 ]
								}

							}
, 							{
								"patchline" : 								{
									"destination" : [ "obj-20", 0 ],
									"midpoints" : [ 110.5, 220.0, 36.0, 220.0 ],
									"source" : [ "obj-19", 0 ]
								}

							}
, 							{
								"patchline" : 								{
									"destination" : [ "obj-20", 0 ],
									"midpoints" : [ 404.5, 319.0, 36.0, 319.0 ],
									"source" : [ "obj-2", 0 ]
								}

							}
, 							{
								"patchline" : 								{
									"destination" : [ "obj-22", 0 ],
									"source" : [ "obj-21", 0 ]
								}

							}
, 							{
								"patchline" : 								{
									"destination" : [ "obj-20", 0 ],
									"midpoints" : [ 110.5, 149.0, 36.0, 149.0 ],
									"source" : [ "obj-22", 0 ]
								}

							}
, 							{
								"patchline" : 								{
									"color" : [ 0.290196, 0.611765, 0.380392, 1.0 ],
									"destination" : [ "obj-4", 0 ],
									"source" : [ "obj-5", 0 ]
								}

							}
, 							{
								"patchline" : 								{
									"destination" : [ "obj-20", 0 ],
									"midpoints" : [ 365.5, 319.0, 36.0, 319.0 ],
									"source" : [ "obj-6", 0 ]
								}

							}
, 							{
								"patchline" : 								{
									"destination" : [ "obj-6", 0 ],
									"source" : [ "obj-7", 1 ]
								}

							}
, 							{
								"patchline" : 								{
									"destination" : [ "obj-7", 0 ],
									"source" : [ "obj-8", 0 ]
								}

							}
, 							{
								"patchline" : 								{
									"destination" : [ "obj-8", 0 ],
									"source" : [ "obj-9", 0 ]
								}

							}
 ]
					}
,
					"patching_rect" : [ 515.0, 265.0, 45.0, 19.0 ],
					"saved_object_attributes" : 					{
						"description" : "",
						"digest" : "",
						"fontsize" : 11.0,
						"globalpatchername" : "",
						"tags" : ""
					}
,
					"text" : "p colors"
				}

			}
, 			{
				"box" : 				{
					"fontname" : "Arial",
					"fontsize" : 9.0,
					"id" : "obj-9",
					"maxclass" : "comment",
					"numinlets" : 1,
					"numoutlets" : 0,
					"patching_rect" : [ 415.0, 115.0, 183.0, 17.0 ],
					"text" : "http://www.cnmat.berkeley.edu/SDIF"
				}

			}
, 			{
				"box" : 				{
					"fontname" : "Arial",
					"fontsize" : 9.0,
					"id" : "obj-10",
					"maxclass" : "comment",
					"numinlets" : 1,
					"numoutlets" : 0,
					"patching_rect" : [ 95.0, 119.0, 218.0, 17.0 ],
					"text" : "(jsui rewrite of Dudas' OS9-only SDIF-menu)"
				}

			}
, 			{
				"box" : 				{
					"fontname" : "Arial",
					"fontsize" : 9.0,
					"id" : "obj-11",
					"linecount" : 2,
					"maxclass" : "comment",
					"numinlets" : 1,
					"numoutlets" : 0,
					"patching_rect" : [ 22.0, 135.0, 161.0, 27.0 ],
					"text" : "Bang here to choose an SDIF file and see what streams it contains"
				}

			}
, 			{
				"box" : 				{
					"data" : [ 593, "", "IBkSG0fBZn....PCIgDQRA...zF....LHX....vFnS+e....DLmPIQEBHf.B7g.YHB..BfPRDEDU3wY6bEsiCCBCKLc+++xbOwItcqkVHN1oGVZZRSCWZbLgNfUp0Z01HU3K1cfMLqTJC+N8dqOJZ2kjQs0Cy7Sk2qDqaeuV6esBIWssWky6bs9Oy6qO8gH.RtmAn5O2k2Yb0SWSalKVuE2KffyYwrIBm0++DmmJZpDLx.NpFFBG8epo4IVovKR7deHaImPEMTPsfLpYfdDfKZQ31Tv8FIBwoolyvSDsKyLhCOxxcftdVDIngIZnCNLRBXk3QchHOsZQQUFHTQSsZaqzeXlvQeJ+Qdyi7ZEYBY3hlm2brpqwdXc5NMy3GDVEQOrOEQSgZay1GTHASBmlY3CFn3mQBHMQyqa1HqqofKyLxNMEd.4U.qg4kY3wHwrKfqJftn4gaajHfHfybxTzEMD3ouzORHZYq1F6GYQBQKRb2.thaMAYDsUcaG0d0csy.YDMEghtLyDSzxVsMVPJQyLeEtUbJp5xLavlUMaY5n1bndBO5e+xogbsthpsHfJ2KGdpY73hfjiQbGc6tB7lix9jflOH2DQ1XL1hVBwVzRH1hVBwVzRH1hVBws+KoX0mPXzuH.5spcV4um2ScZ0Z8mWdidNQehZP0+QFaNi6gCOVJkTtmAabiLgqEWP7O1P+6uC5G0ITBWi6mxgtnGCEMTCAzPV2bosQfXrpBzVZldtQu6oxF+i3b+CFmP7MQ+TMlEbQ3RG.....IUjSD4pPfIH" ],
					"embed" : 1,
					"id" : "obj-12",
					"maxclass" : "fpic",
					"numinlets" : 1,
					"numoutlets" : 1,
					"outlettype" : [ "jit_matrix" ],
					"patching_rect" : [ 470.0, 692.0, 109.0, 48.0 ]
				}

			}
, 			{
				"box" : 				{
					"fontname" : "Arial",
					"fontsize" : 9.0,
					"id" : "obj-13",
					"linecount" : 2,
					"maxclass" : "comment",
					"numinlets" : 1,
					"numoutlets" : 0,
					"patching_rect" : [ 470.0, 741.0, 263.0, 27.0 ],
					"text" : "SDIF-menu2, and all other CNMAT Max objects, can be found at: http://www.cnmat.berkeley.edu/MAX"
				}

			}
, 			{
				"box" : 				{
					"fontname" : "Arial",
					"fontsize" : 9.0,
					"id" : "obj-14",
					"linecount" : 3,
					"maxclass" : "comment",
					"numinlets" : 1,
					"numoutlets" : 0,
					"patching_rect" : [ 585.0, 700.0, 148.0, 37.0 ],
					"text" : "SDIF-menu2.help version 0., Michael Zbyszynski and Matt Wright 16 April 5"
				}

			}
, 			{
				"box" : 				{
					"fontname" : "Arial",
					"fontsize" : 9.0,
					"id" : "obj-16",
					"maxclass" : "comment",
					"numinlets" : 1,
					"numoutlets" : 0,
					"patching_rect" : [ 75.0, 104.0, 218.0, 17.0 ],
					"text" : "Menu for selecting a stream from an SDIF file."
				}

			}
, 			{
				"box" : 				{
					"id" : "obj-18",
					"maxclass" : "toggle",
					"numinlets" : 1,
					"numoutlets" : 1,
					"outlettype" : [ "int" ],
					"parameter_enable" : 0,
					"patching_rect" : [ 50.0, 574.0, 15.0, 15.0 ]
				}

			}
, 			{
				"box" : 				{
					"fontname" : "Arial",
					"fontsize" : 9.0,
					"id" : "obj-19",
					"maxclass" : "newobj",
					"numinlets" : 2,
					"numoutlets" : 1,
					"outlettype" : [ "" ],
					"patching_rect" : [ 69.0, 574.0, 27.0, 19.0 ],
					"text" : "gate"
				}

			}
, 			{
				"box" : 				{
					"fontname" : "Arial",
					"fontsize" : 9.0,
					"id" : "obj-20",
					"maxclass" : "newobj",
					"numinlets" : 1,
					"numoutlets" : 1,
					"outlettype" : [ "" ],
					"patching_rect" : [ 60.0, 210.0, 65.0, 19.0 ],
					"text" : "prepend scan"
				}

			}
, 			{
				"box" : 				{
					"id" : "obj-21",
					"maxclass" : "button",
					"numinlets" : 1,
					"numoutlets" : 1,
					"outlettype" : [ "bang" ],
					"parameter_enable" : 0,
					"patching_rect" : [ 24.0, 163.0, 18.0, 18.0 ]
				}

			}
, 			{
				"box" : 				{
					"fontname" : "Arial",
					"fontsize" : 9.0,
					"id" : "obj-22",
					"maxclass" : "newobj",
					"numinlets" : 1,
					"numoutlets" : 0,
					"patching_rect" : [ 24.0, 209.0, 31.0, 19.0 ],
					"text" : "print"
				}

			}
, 			{
				"box" : 				{
					"fontname" : "Arial",
					"fontsize" : 9.0,
					"id" : "obj-23",
					"maxclass" : "newobj",
					"numinlets" : 1,
					"numoutlets" : 2,
					"outlettype" : [ "", "bang" ],
					"patching_rect" : [ 24.0, 185.0, 55.0, 19.0 ],
					"text" : "opendialog"
				}

			}
, 			{
				"box" : 				{
					"fontname" : "Arial",
					"fontsize" : 9.0,
					"id" : "obj-24",
					"maxclass" : "message",
					"numinlets" : 2,
					"numoutlets" : 1,
					"outlettype" : [ "" ],
					"patching_rect" : [ 34.0, 599.0, 30.0, 19.0 ],
					"text" : "print"
				}

			}
, 			{
				"box" : 				{
					"fontname" : "Arial",
					"fontsize" : 9.0,
					"id" : "obj-25",
					"maxclass" : "newobj",
					"numinlets" : 1,
					"numoutlets" : 0,
					"patching_rect" : [ 10.0, 691.0, 69.0, 19.0 ],
					"text" : "print OUTPUT"
				}

			}
, 			{
				"box" : 				{
					"fontname" : "Arial",
					"fontsize" : 9.0,
					"id" : "obj-26",
					"maxclass" : "newobj",
					"numinlets" : 1,
					"numoutlets" : 1,
					"outlettype" : [ "" ],
					"patching_rect" : [ 69.0, 597.0, 141.0, 19.0 ],
					"text" : "prepend read-stream-number"
				}

			}
, 			{
				"box" : 				{
					"fontname" : "Arial",
					"fontsize" : 9.0,
					"id" : "obj-27",
					"maxclass" : "newobj",
					"numinlets" : 1,
					"numoutlets" : 1,
					"outlettype" : [ "bang" ],
					"patching_rect" : [ 59.0, 620.0, 125.0, 19.0 ],
					"text" : "SDIF-buffer wubba-wubba"
				}

			}
, 			{
				"box" : 				{
					"fontname" : "Arial",
					"fontsize" : 9.0,
					"id" : "obj-28",
					"linecount" : 2,
					"maxclass" : "comment",
					"numinlets" : 1,
					"numoutlets" : 0,
					"patching_rect" : [ 134.0, 561.0, 464.0, 27.0 ],
					"text" : "When you select a stream (by clicking on a row of the menu or by sending in an int), SDIF-menu2 outputs the filename and the stream number, suitable for use with SDIF-buffer as shown."
				}

			}
, 			{
				"box" : 				{
					"fontname" : "Arial",
					"fontsize" : 9.0,
					"id" : "obj-29",
					"maxclass" : "message",
					"numinlets" : 2,
					"numoutlets" : 1,
					"outlettype" : [ "" ],
					"patching_rect" : [ 76.0, 234.0, 105.0, 19.0 ],
					"text" : "scan multistream.sdif"
				}

			}
, 			{
				"box" : 				{
					"fontname" : "Arial",
					"fontsize" : 9.0,
					"id" : "obj-30",
					"linecount" : 2,
					"maxclass" : "message",
					"numinlets" : 2,
					"numoutlets" : 1,
					"outlettype" : [ "" ],
					"patching_rect" : [ 25.0, 659.0, 473.0, 29.0 ],
					"text" : "osx:/Users/jml/Documents/materials/programming/max_files/1_max_visible/maxlib_to_sort/sdif_test_jayell/read_write_stuff/mywerth.sdif 1"
				}

			}
, 			{
				"box" : 				{
					"fontname" : "Arial",
					"fontsize" : 9.0,
					"id" : "obj-31",
					"maxclass" : "message",
					"numinlets" : 2,
					"numoutlets" : 1,
					"outlettype" : [ "" ],
					"patching_rect" : [ 426.0, 265.0, 32.0, 19.0 ],
					"text" : "clear"
				}

			}
, 			{
				"box" : 				{
					"fontname" : "Arial",
					"fontsize" : 9.0,
					"id" : "obj-32",
					"maxclass" : "newobj",
					"numinlets" : 1,
					"numoutlets" : 1,
					"outlettype" : [ "" ],
					"patching_rect" : [ 25.0, 639.0, 61.0, 19.0 ],
					"text" : "prepend set"
				}

			}
, 			{
				"box" : 				{
					"id" : "obj-33",
					"maxclass" : "button",
					"numinlets" : 1,
					"numoutlets" : 1,
					"outlettype" : [ "bang" ],
					"parameter_enable" : 0,
					"patching_rect" : [ 11.0, 572.0, 15.0, 15.0 ]
				}

			}
, 			{
				"box" : 				{
					"fontname" : "Arial",
					"fontsize" : 9.0,
					"id" : "obj-34",
					"maxclass" : "message",
					"numinlets" : 2,
					"numoutlets" : 1,
					"outlettype" : [ "" ],
					"patching_rect" : [ 409.0, 185.0, 51.0, 19.0 ],
					"text" : "howmany"
				}

			}
, 			{
				"box" : 				{
					"fontname" : "Arial",
					"fontsize" : 9.0,
					"id" : "obj-35",
					"maxclass" : "message",
					"numinlets" : 2,
					"numoutlets" : 1,
					"outlettype" : [ "" ],
					"patching_rect" : [ 83.0, 251.0, 115.0, 19.0 ],
					"text" : "scan morning.1TRC.sdif"
				}

			}
, 			{
				"box" : 				{
					"fontname" : "Arial",
					"fontsize" : 9.0,
					"id" : "obj-36",
					"maxclass" : "newobj",
					"numinlets" : 1,
					"numoutlets" : 2,
					"outlettype" : [ "", "" ],
					"patching_rect" : [ 25.0, 271.0, 101.0, 19.0 ],
					"text" : "SDIF-fileinfo helpbuf"
				}

			}
, 			{
				"box" : 				{
					"embedstate" : [ [ "r_brgb", 0.05472, 0, 0.235294, 1 ], [ "r_frgb", 0.575758, 0.880682, 1, 1 ], [ "r_rgb2", 0, 0, 0, 1 ], [ "r_hlit", 0.882353, 0.820793, 0, 1 ] ],
					"filename" : "SDIF-menu2.js",
					"id" : "obj-37",
					"maxclass" : "jsui",
					"numinlets" : 1,
					"numoutlets" : 2,
					"outlettype" : [ "", "" ],
					"parameter_enable" : 0,
					"patching_rect" : [ 25.0, 326.0, 650.0, 232.0 ]
				}

			}
, 			{
				"box" : 				{
					"fontname" : "Arial",
					"fontsize" : 9.0,
					"id" : "obj-38",
					"maxclass" : "comment",
					"numinlets" : 1,
					"numoutlets" : 0,
					"patching_rect" : [ 446.0, 222.0, 100.0, 17.0 ],
					"text" : "other messages:"
				}

			}
 ],
		"lines" : [ 			{
				"patchline" : 				{
					"destination" : [ "obj-19", 0 ],
					"source" : [ "obj-18", 0 ]
				}

			}
, 			{
				"patchline" : 				{
					"destination" : [ "obj-26", 0 ],
					"source" : [ "obj-19", 0 ]
				}

			}
, 			{
				"patchline" : 				{
					"destination" : [ "obj-36", 0 ],
					"source" : [ "obj-20", 0 ]
				}

			}
, 			{
				"patchline" : 				{
					"destination" : [ "obj-23", 0 ],
					"source" : [ "obj-21", 0 ]
				}

			}
, 			{
				"patchline" : 				{
					"destination" : [ "obj-20", 0 ],
					"order" : 0,
					"source" : [ "obj-23", 0 ]
				}

			}
, 			{
				"patchline" : 				{
					"destination" : [ "obj-22", 0 ],
					"order" : 1,
					"source" : [ "obj-23", 0 ]
				}

			}
, 			{
				"patchline" : 				{
					"destination" : [ "obj-27", 0 ],
					"source" : [ "obj-24", 0 ]
				}

			}
, 			{
				"patchline" : 				{
					"destination" : [ "obj-27", 0 ],
					"source" : [ "obj-26", 0 ]
				}

			}
, 			{
				"patchline" : 				{
					"destination" : [ "obj-36", 0 ],
					"source" : [ "obj-29", 0 ]
				}

			}
, 			{
				"patchline" : 				{
					"destination" : [ "obj-37", 0 ],
					"midpoints" : [ 251.5, 303.0, 34.5, 303.0 ],
					"source" : [ "obj-3", 0 ]
				}

			}
, 			{
				"patchline" : 				{
					"destination" : [ "obj-37", 0 ],
					"midpoints" : [ 435.5, 303.0, 34.5, 303.0 ],
					"source" : [ "obj-31", 0 ]
				}

			}
, 			{
				"patchline" : 				{
					"destination" : [ "obj-30", 0 ],
					"source" : [ "obj-32", 0 ]
				}

			}
, 			{
				"patchline" : 				{
					"destination" : [ "obj-37", 0 ],
					"midpoints" : [ 418.5, 303.0, 34.5, 303.0 ],
					"source" : [ "obj-34", 0 ]
				}

			}
, 			{
				"patchline" : 				{
					"destination" : [ "obj-36", 0 ],
					"source" : [ "obj-35", 0 ]
				}

			}
, 			{
				"patchline" : 				{
					"destination" : [ "obj-37", 0 ],
					"source" : [ "obj-36", 0 ]
				}

			}
, 			{
				"patchline" : 				{
					"destination" : [ "obj-19", 1 ],
					"order" : 0,
					"source" : [ "obj-37", 0 ]
				}

			}
, 			{
				"patchline" : 				{
					"destination" : [ "obj-25", 0 ],
					"order" : 3,
					"source" : [ "obj-37", 0 ]
				}

			}
, 			{
				"patchline" : 				{
					"destination" : [ "obj-32", 0 ],
					"order" : 1,
					"source" : [ "obj-37", 0 ]
				}

			}
, 			{
				"patchline" : 				{
					"destination" : [ "obj-33", 0 ],
					"order" : 2,
					"source" : [ "obj-37", 0 ]
				}

			}
, 			{
				"patchline" : 				{
					"destination" : [ "obj-5", 0 ],
					"source" : [ "obj-37", 1 ]
				}

			}
, 			{
				"patchline" : 				{
					"destination" : [ "obj-41", 0 ],
					"source" : [ "obj-5", 0 ]
				}

			}
, 			{
				"patchline" : 				{
					"destination" : [ "obj-7", 0 ],
					"source" : [ "obj-6", 0 ]
				}

			}
, 			{
				"patchline" : 				{
					"destination" : [ "obj-37", 0 ],
					"midpoints" : [ 472.5, 303.0, 34.5, 303.0 ],
					"source" : [ "obj-7", 0 ]
				}

			}
, 			{
				"patchline" : 				{
					"destination" : [ "obj-37", 0 ],
					"midpoints" : [ 524.5, 303.0, 34.5, 303.0 ],
					"source" : [ "obj-8", 0 ]
				}

			}
 ],
		"dependency_cache" : [ 			{
				"name" : "SDIF-menu2.js",
				"bootpath" : "~/Documents/Max 8/Packages/CNMAT-MMJ-Depot/jsui",
				"patcherrelativepath" : ".",
				"type" : "TEXT",
				"implicit" : 1
			}
, 			{
				"name" : "badge.maxpat",
				"bootpath" : "~/Documents/Max 8/Packages/CNMAT-MMJ-Depot/patchers/depot_support",
				"patcherrelativepath" : "../patchers/depot_support",
				"type" : "JSON",
				"implicit" : 1
			}
, 			{
				"name" : "uc_license.maxpat",
				"bootpath" : "~/Documents/Max 8/Packages/CNMAT-MMJ-Depot/patchers/depot_support",
				"patcherrelativepath" : "../patchers/depot_support",
				"type" : "JSON",
				"implicit" : 1
			}
, 			{
				"name" : "cnmat_blue.gif",
				"bootpath" : "~/Documents/Max 8/Packages/CNMAT-MMJ-Depot/media/Images",
				"patcherrelativepath" : "../media/Images",
				"type" : "GIFf",
				"implicit" : 1
			}
, 			{
				"name" : "banner.maxpat",
				"bootpath" : "~/Documents/Max 8/Packages/CNMAT-MMJ-Depot/patchers/depot_support",
				"patcherrelativepath" : "../patchers/depot_support",
				"type" : "JSON",
				"implicit" : 1
			}
, 			{
				"name" : "CNMAT_logo.png",
				"bootpath" : "~/Documents/Max 8/Packages/CNMAT-MMJ-Depot/media/Images",
				"patcherrelativepath" : "../media/Images",
				"type" : "PNG",
				"implicit" : 1
			}
, 			{
				"name" : "SDIF-fileinfo.mxo",
				"type" : "iLaX"
			}
, 			{
				"name" : "SDIF-buffer.mxo",
				"type" : "iLaX"
			}
 ],
		"autosave" : 0
	}

}
